<svg width="212" height="210" viewBox="0 0 212 210" fill="none" xmlns="http://www.w3.org/2000/svg">
<path d="M106.082 208.6C102.542 208.6 100.287 206.815 100.287 203.89H102.827C102.827 205.41 104.152 206.365 106.112 206.365C107.752 206.365 109.382 205.695 109.382 204.27C109.382 202.98 108.107 202.765 105.922 202.44L105.257 202.345C102.852 201.985 99.7866 201.52 99.7866 198.195C99.7866 195.21 102.267 193.7 105.927 193.7C109.912 193.7 112.212 195.485 112.212 198.54H109.672C109.672 196.91 108.247 195.935 105.952 195.935C103.992 195.935 102.377 196.65 102.377 198.185C102.377 199.6 103.687 199.81 105.687 200.1L106.527 200.225C108.932 200.575 111.972 201.005 111.972 204.155C111.972 207.08 109.357 208.6 106.082 208.6Z" fill="#F5F5F5"/>
<path d="M85.9262 206.444L76.4401 204.106L76.9953 201.853L83.9279 203.562L84.8181 199.95L78.4585 198.382L78.9969 196.198L85.3566 197.765L86.2397 194.183L79.1227 192.428L79.6779 190.176L89.3485 192.559L85.9262 206.444Z" fill="#F5F5F5"/>
<path d="M62.2325 198.692L53.5816 194.152L54.6597 192.097L60.9819 195.416L62.7106 192.122L56.9109 189.078L57.9565 187.085L63.7563 190.129L65.4711 186.862L58.9807 183.456L60.0589 181.401L68.878 186.03L62.2325 198.692Z" fill="#F5F5F5"/>
<path d="M36.1171 160.429L24.3484 168.553L20.5424 163.039C18.7757 160.479 19.1269 157.582 21.3901 156.02C23.6575 154.455 26.5092 155.153 28.2702 157.705L30.5822 161.054L34.6231 158.265L36.1171 160.429ZM28.7058 162.349L26.4903 159.14C25.4991 157.704 24.1145 157.335 22.8841 158.184C21.662 159.028 21.5155 160.435 22.4955 161.855L24.7308 165.093L28.7058 162.349Z" fill="#F5F5F5"/>
<path d="M23.995 139.754L24.9276 142.213L11.5569 147.284L9.07644 140.744C8.00198 137.911 8.90052 135.458 11.2895 134.552C13.3979 133.752 15.3461 134.687 16.2644 136.911C15.9509 135.859 16.3723 134.784 17.4504 133.707L20.5358 130.633L21.566 133.349L18.4934 136.429C17.6375 137.288 17.5217 137.942 18.0235 139.265L18.9366 141.673L23.995 139.754ZM16.8328 142.471L15.3984 138.688C14.7991 137.108 13.6731 136.466 12.3641 136.962C11.0785 137.45 10.7054 138.623 11.3188 140.241L12.7514 144.018L16.8328 142.471Z" fill="#F5F5F5"/>
<path d="M11.3165 122.894C6.88905 123.432 3.58335 121.012 3.09517 116.992C2.6076 112.976 5.23709 109.827 9.66458 109.289C14.0921 108.751 17.399 111.18 17.8865 115.196C18.3747 119.216 15.744 122.356 11.3165 122.894ZM10.9983 120.273C14.2197 119.882 15.8935 118.112 15.5735 115.477C15.2541 112.846 13.2041 111.519 9.98279 111.91C6.76145 112.301 5.08876 114.08 5.40818 116.711C5.72821 119.347 7.77697 120.664 10.9983 120.273Z" fill="#F5F5F5"/>
<path d="M11.6936 98.9339L10.7108 98.8145L11.0278 96.2037L12.0255 96.3248C13.9216 96.5551 15.4547 95.5022 15.6692 93.7352C15.8856 91.9533 14.6248 90.5561 12.7188 90.3247L3.8539 89.2483L4.17091 86.6374L13.0557 87.7162C16.4904 88.1333 18.3902 90.6557 17.9834 94.0061C17.5766 97.3565 15.1284 99.3509 11.6936 98.9339Z" fill="#F5F5F5"/>
<path d="M7.71545 72.8449L11.1799 63.7098L13.3492 64.5325L10.8173 71.2085L14.2956 72.5276L16.6182 66.4033L18.722 67.2011L16.3993 73.3255L19.8496 74.634L22.4488 67.7803L24.618 68.603L21.0862 77.9158L7.71545 72.8449Z" fill="#F5F5F5"/>
<path d="M24.8343 53.3299C27.5049 55.1733 29.9313 54.9587 31.4367 52.7778C32.6495 51.0207 32.3886 49.2246 30.6729 47.5118L32.1613 45.3555C34.8866 47.9293 35.3425 51.2209 33.3514 54.1055C31.0564 57.4304 27.0051 58.0362 23.3346 55.5026C19.6641 52.9691 18.794 48.9662 21.0889 45.6413C23.08 42.7568 26.3194 42.0158 29.6923 43.6513L28.204 45.8076C25.9941 44.8107 24.2221 45.2037 23.0093 46.9608C21.504 49.1417 22.1637 51.4866 24.8343 53.3299Z" fill="#F5F5F5"/>
<path d="M42.3402 23.3903L43.8786 25.1268L40.3981 28.2104L48.3423 37.1775L46.3737 38.9215L38.4295 29.9544L34.9489 33.0379L33.4104 31.3014L42.3402 23.3903Z" fill="#F5F5F5"/>
<path d="M57.7825 13.3047C60.917 11.6595 63.7432 12.1921 65.1025 14.7821L62.8535 15.9625C62.1471 14.6166 60.53 14.3867 58.7945 15.2976C57.3424 16.0597 56.2105 17.4105 56.8727 18.6723C57.4722 19.8145 58.7011 19.4124 60.7868 18.6847L61.4198 18.4598C63.7166 17.6609 66.6466 16.6483 68.1918 19.5924C69.579 22.2355 68.0848 24.725 64.8441 26.4259C61.3155 28.2778 58.4495 27.7662 57.0297 25.0611L59.2788 23.8807C60.0363 25.324 61.7512 25.5251 63.7833 24.4585C65.5188 23.5477 66.6165 22.1641 65.9032 20.8049C65.2456 19.552 63.988 19.9748 62.0824 20.6475L61.2805 20.9272C58.9883 21.7349 56.0967 22.7669 54.6328 19.9777C53.2735 17.3878 54.8826 14.8266 57.7825 13.3047Z" fill="#F5F5F5"/>
<path d="M84.8487 10.3515L85.8095 14.2499L81.7073 15.261L80.7464 11.3626L84.8487 10.3515Z" fill="#F5F5F5"/>
<path d="M105.918 1.4C109.458 1.4 111.713 3.185 111.713 6.11L109.173 6.11C109.173 4.59 107.848 3.635 105.888 3.635C104.248 3.635 102.618 4.305 102.618 5.73C102.618 7.02 103.893 7.235 106.078 7.56L106.743 7.655C109.148 8.015 112.213 8.48 112.213 11.805C112.213 14.79 109.733 16.3 106.073 16.3C102.088 16.3 99.7884 14.515 99.7884 11.46H102.328C102.328 13.09 103.753 14.065 106.048 14.065C108.008 14.065 109.623 13.35 109.623 11.815C109.623 10.4 108.313 10.19 106.313 9.9L105.473 9.775C103.068 9.425 100.028 8.995 100.028 5.845C100.028 2.92 102.643 1.4 105.918 1.4Z" fill="#F5F5F5"/>
<path d="M126.074 3.55619L135.56 5.8943L135.005 8.14689L128.072 6.43817L127.182 10.0501L133.542 11.6176L133.003 13.8022L126.643 12.2347L125.76 15.8175L132.877 17.5717L132.322 19.8242L122.652 17.4407L126.074 3.55619Z" fill="#F5F5F5"/>
<path d="M149.768 11.3079L158.418 15.8483L157.34 17.9025L151.018 14.5844L149.289 17.8783L155.089 20.9222L154.043 22.9145L148.244 19.8706L146.529 23.1379L153.019 26.5443L151.941 28.5986L143.122 23.9699L149.768 11.3079Z" fill="#F5F5F5"/>
<path d="M175.883 49.5706L187.652 41.4473L191.458 46.9613C193.224 49.5208 192.873 52.4182 190.61 53.9804C188.343 55.5454 185.491 54.8467 183.73 52.2954L181.418 48.9459L177.377 51.7351L175.883 49.5706ZM183.294 47.6507L185.51 50.8603C186.501 52.2964 187.885 52.6652 189.116 51.8159C190.338 50.9724 190.484 49.565 189.505 48.1454L187.269 44.9069L183.294 47.6507Z" fill="#F5F5F5"/>
<path d="M188.005 70.2458L187.072 67.7867L200.443 62.7158L202.924 69.2563C203.998 72.0894 203.099 74.5424 200.711 75.4484C198.602 76.248 196.654 75.3131 195.736 73.0892C196.049 74.1414 195.628 75.2157 194.55 76.293L191.464 79.3669L190.434 76.6506L193.507 73.5709C194.363 72.7116 194.478 72.0581 193.977 70.735L193.063 68.3274L188.005 70.2458ZM195.167 67.5295L196.602 71.3116C197.201 72.8918 198.327 73.5343 199.636 73.0378C200.922 72.5503 201.295 71.3767 200.681 69.7591L199.249 65.9816L195.167 67.5295Z" fill="#F5F5F5"/>
<path d="M200.683 87.106C205.111 86.5684 208.417 88.9876 208.905 93.0081C209.392 97.0236 206.763 100.173 202.335 100.711C197.908 101.249 194.601 98.8196 194.113 94.8041C193.625 90.7836 196.256 87.6436 200.683 87.106ZM201.002 89.7267C197.78 90.1179 196.106 91.8876 196.426 94.5232C196.746 97.1539 198.796 98.4815 202.017 98.0903C205.239 97.6992 206.911 95.9196 206.592 93.2889C206.272 90.6533 204.223 89.3356 201.002 89.7267Z" fill="#F5F5F5"/>
<path d="M200.306 111.066L201.289 111.185L200.972 113.796L199.974 113.675C198.078 113.445 196.545 114.498 196.331 116.265C196.114 118.047 197.375 119.444 199.281 119.675L208.146 120.752L207.829 123.363L198.944 122.284C195.51 121.867 193.61 119.344 194.017 115.994C194.423 112.644 196.872 110.649 200.306 111.066Z" fill="#F5F5F5"/>
<path d="M204.285 137.155L200.82 146.29L198.651 145.468L201.183 138.792L197.704 137.472L195.382 143.597L193.278 142.799L195.601 136.675L192.15 135.366L189.551 142.22L187.382 141.397L190.914 132.084L204.285 137.155Z" fill="#F5F5F5"/>
<path d="M187.166 156.67C184.495 154.827 182.069 155.041 180.563 157.222C179.35 158.979 179.611 160.775 181.327 162.488L179.839 164.644C177.113 162.071 176.658 158.779 178.649 155.895C180.944 152.57 184.995 151.964 188.665 154.497C192.336 157.031 193.206 161.034 190.911 164.359C188.92 167.243 185.681 167.984 182.308 166.349L183.796 164.192C186.006 165.189 187.778 164.796 188.991 163.039C190.496 160.858 189.836 158.513 187.166 156.67Z" fill="#F5F5F5"/>
<path d="M169.66 186.61L168.121 184.873L171.602 181.79L163.658 172.822L165.626 171.078L173.571 180.046L177.051 176.962L178.59 178.699L169.66 186.61Z" fill="#F5F5F5"/>
<path d="M154.218 196.695C151.083 198.34 148.257 197.808 146.897 195.218L149.147 194.038C149.853 195.383 151.47 195.613 153.205 194.702C154.658 193.94 155.79 192.59 155.127 191.328C154.528 190.185 153.299 190.588 151.213 191.315L150.58 191.54C148.283 192.339 145.353 193.352 143.808 190.408C142.421 187.765 143.915 185.275 147.156 183.574C150.684 181.722 153.551 182.234 154.97 184.939L152.721 186.119C151.964 184.676 150.249 184.475 148.217 185.541C146.481 186.452 145.383 187.836 146.097 189.195C146.754 190.448 148.012 190.025 149.918 189.353L150.72 189.073C153.012 188.265 155.903 187.233 157.367 190.022C158.726 192.612 157.117 195.173 154.218 196.695Z" fill="#F5F5F5"/>
<path d="M127.151 199.648L126.19 195.75L130.293 194.739L131.254 198.637L127.151 199.648Z" fill="#F5F5F5"/>
</svg>
