<svg width="211" height="210" viewBox="0 0 211 210" fill="none" xmlns="http://www.w3.org/2000/svg">
<path d="M101.414 208.3H98.6739L103.584 194H107.374L112.214 208.3H109.414L105.444 195.95L101.414 208.3Z" fill="#F5F5F5"/>
<path d="M88.5997 199.876C87.5323 204.206 84.0981 206.439 80.1658 205.47C76.2384 204.502 74.2256 200.926 75.2929 196.596C76.3603 192.266 79.8042 190.035 83.7316 191.003C87.6639 191.972 89.667 195.545 88.5997 199.876ZM86.0364 199.244C86.813 196.093 85.7519 193.901 83.174 193.265C80.601 192.631 78.6328 194.077 77.8562 197.228C77.0796 200.379 78.1504 202.574 80.7234 203.208C83.3013 203.843 85.2598 202.395 86.0364 199.244Z" fill="#F5F5F5"/>
<path d="M55.835 195.626L62.4805 182.964L64.8093 184.187L58.1637 196.849L55.835 195.626Z" fill="#F5F5F5"/>
<path d="M48.983 173.883L50.9516 175.627L41.4689 186.331L36.2331 181.692C33.9651 179.683 33.6207 177.093 35.315 175.181C36.8104 173.493 38.9698 173.415 40.8164 174.958C40.0498 174.172 39.9238 173.025 40.3777 171.57L41.6813 167.414L43.8557 169.341L42.5662 173.495C42.2078 174.654 42.4089 175.287 43.4681 176.225L45.3955 177.932L48.983 173.883ZM43.9035 179.617L40.8757 176.934C39.6108 175.814 38.3152 175.768 37.3868 176.816C36.475 177.845 36.69 179.058 37.985 180.205L41.0089 182.884L43.9035 179.617Z" fill="#F5F5F5"/>
<path d="M24.3263 142.095L10.9556 147.165L8.5797 140.901C7.47688 137.993 8.51132 135.264 11.0826 134.289C13.6586 133.312 16.2602 134.673 17.3595 137.571L18.8027 141.377L23.3937 139.636L24.3263 142.095ZM16.6709 142.185L15.2879 138.539C14.6692 136.907 13.4131 136.218 12.0152 136.748C10.6267 137.274 10.1477 138.606 10.7594 140.219L12.1548 143.898L16.6709 142.185Z" fill="#F5F5F5"/>
<path d="M17.5044 119.119L17.8214 121.73L3.62569 123.454L2.78253 116.51C2.41731 113.502 3.87678 111.335 6.41315 111.027C8.65171 110.755 10.3195 112.129 10.6789 114.508C10.6263 113.412 11.2926 112.47 12.5971 111.682L16.3286 109.435L16.6787 112.319L12.9584 114.574C11.9217 115.204 11.6529 115.81 11.8235 117.215L12.1339 119.771L17.5044 119.119ZM9.90026 120.043L9.41269 116.027C9.20898 114.349 8.26946 113.456 6.87967 113.625C5.51469 113.791 4.87159 114.841 5.08012 116.558L5.56709 120.569L9.90026 120.043Z" fill="#F5F5F5"/>
<path d="M9.22923 99.7148C4.80175 99.1772 2.17105 96.0372 2.65923 92.0167C3.1468 88.0012 6.4537 85.5721 10.8812 86.1097C15.3087 86.6473 17.9382 89.7972 17.4506 93.8127C16.9624 97.8332 13.6567 100.252 9.22923 99.7148ZM9.54745 97.094C12.7688 97.4852 14.8176 96.1675 15.1376 93.5319C15.457 90.9012 13.7843 89.1216 10.563 88.7305C7.34163 88.3393 5.29166 89.6669 4.97224 92.2976C4.65221 94.9332 6.32611 96.7029 9.54745 97.094Z" fill="#F5F5F5"/>
<path d="M15.3294 76.5411L14.4037 76.1901L15.3363 73.731L16.276 74.0874C18.0619 74.7647 19.8024 74.1093 20.4336 72.4449C21.0701 70.7666 20.1803 69.1083 18.3851 68.4274L10.0354 65.2608L10.968 62.8017L19.3364 65.9754C22.5716 67.2024 23.8125 70.1061 22.6157 73.2618C21.4189 76.4175 18.5645 77.7681 15.3294 76.5411Z" fill="#F5F5F5"/>
<path d="M17.7103 50.2582L23.2603 42.2177L25.1696 43.5356L21.1137 49.4117L24.1752 51.5249L27.896 46.1344L29.7477 47.4125L26.0269 52.8031L29.0637 54.8992L33.2276 48.8667L35.1369 50.1846L29.479 58.3816L17.7103 50.2582Z" fill="#F5F5F5"/>
<path d="M41.7839 23.3903L43.3223 25.1268L39.8417 28.2104L47.7859 37.1775L45.8174 38.9215L37.8732 29.9544L34.3926 33.0379L32.8541 31.3014L41.7839 23.3903Z" fill="#F5F5F5"/>
<path d="M57.2261 13.3047C60.3606 11.6595 63.1869 12.1921 64.5462 14.7821L62.2971 15.9625C61.5908 14.6166 59.9737 14.3867 58.2382 15.2976C56.7861 16.0597 55.6541 17.4105 56.3164 18.6723C56.9159 19.8145 58.1447 19.4124 60.2305 18.6847L60.8635 18.4598C63.1603 17.6609 66.0903 16.6483 67.6355 19.5924C69.0227 22.2355 67.5285 24.725 64.2877 26.4259C60.7592 28.2778 57.8931 27.7662 56.4734 25.0611L58.7225 23.8807C59.48 25.324 61.1948 25.5251 63.227 24.4585C64.9624 23.5477 66.0602 22.1641 65.3468 20.8049C64.6892 19.552 63.4317 19.9748 61.526 20.6475L60.7242 20.9272C58.432 21.7349 55.5404 22.7669 54.0765 19.9777C52.7172 17.3878 54.3263 14.8266 57.2261 13.3047Z" fill="#F5F5F5"/>
<path d="M84.2924 10.3515L85.2532 14.2499L81.151 15.261L80.1901 11.3626L84.2924 10.3515Z" fill="#F5F5F5"/>
<path d="M109.473 1.7L112.213 1.7L107.303 16L103.513 16L98.6734 1.7L101.473 1.7L105.443 14.05L109.473 1.7Z" fill="#F5F5F5"/>
<path d="M122.288 10.1241C123.355 5.79372 126.789 3.56069 130.722 4.52992C134.649 5.49795 136.662 9.07354 135.594 13.4039C134.527 17.7343 131.083 19.965 127.156 18.997C123.223 18.0277 121.22 14.4545 122.288 10.1241ZM124.851 10.7559C124.074 13.9066 125.135 16.0993 127.713 16.7347C130.286 17.3688 132.255 15.9229 133.031 12.7722C133.808 9.62144 132.737 7.4264 130.164 6.79221C127.586 6.15683 125.628 7.60521 124.851 10.7559Z" fill="#F5F5F5"/>
<path d="M155.052 14.3736L148.407 27.0356L146.078 25.8134L152.724 13.1514L155.052 14.3736Z" fill="#F5F5F5"/>
<path d="M161.904 36.117L159.936 34.373L169.418 23.6693L174.654 28.3079C176.922 30.3171 177.267 32.9067 175.572 34.8192C174.077 36.5071 171.918 36.5846 170.071 35.0422C170.838 35.8282 170.964 36.9752 170.51 38.4301L169.206 42.5858L167.032 40.6594L168.321 36.5046C168.68 35.3459 168.478 34.7135 167.419 33.7751L165.492 32.0676L161.904 36.117ZM166.984 30.3834L170.012 33.0658C171.277 34.1865 172.572 34.2321 173.501 33.1841C174.412 32.1549 174.197 30.9424 172.902 29.7952L169.878 27.1162L166.984 30.3834Z" fill="#F5F5F5"/>
<path d="M186.561 67.9054L199.932 62.8345L202.308 69.0991C203.41 72.007 202.376 74.7362 199.805 75.7114C197.229 76.6883 194.627 75.3274 193.528 72.4289L192.085 68.6234L187.494 70.3645L186.561 67.9054ZM194.216 67.8149L195.599 71.4614C196.218 73.093 197.474 73.7824 198.872 73.2523C200.261 72.7257 200.74 71.3943 200.128 69.7814L198.733 66.1021L194.216 67.8149Z" fill="#F5F5F5"/>
<path d="M193.383 90.8807L193.066 88.2699L207.262 86.5462L208.105 93.4902C208.47 96.4981 207.011 98.6649 204.474 98.9728C202.236 99.2446 200.568 97.8707 200.209 95.4916C200.261 96.5883 199.595 97.5305 198.29 98.3185L194.559 100.565L194.209 97.6808L197.929 95.4259C198.966 94.7964 199.234 94.1895 199.064 92.7849L198.754 90.2286L193.383 90.8807ZM200.987 89.9574L201.475 93.9729C201.678 95.6506 202.618 96.5439 204.008 96.3751C205.373 96.2094 206.016 95.1592 205.807 93.4418L205.32 89.4313L200.987 89.9574Z" fill="#F5F5F5"/>
<path d="M201.658 110.285C206.086 110.823 208.716 113.963 208.228 117.983C207.741 121.999 204.434 124.428 200.006 123.89C195.579 123.353 192.949 120.203 193.437 116.187C193.925 112.167 197.231 109.748 201.658 110.285ZM201.34 112.906C198.119 112.515 196.07 113.832 195.75 116.468C195.43 119.099 197.103 120.878 200.324 121.27C203.546 121.661 205.596 120.333 205.915 117.702C206.235 115.067 204.561 113.297 201.34 112.906Z" fill="#F5F5F5"/>
<path d="M195.558 133.459L196.484 133.81L195.551 136.269L194.611 135.913C192.825 135.235 191.085 135.891 190.454 137.555C189.817 139.233 190.707 140.892 192.502 141.573L200.852 144.739L199.919 147.198L191.551 144.025C188.316 142.798 187.075 139.894 188.272 136.738C189.468 133.583 192.323 132.232 195.558 133.459Z" fill="#F5F5F5"/>
<path d="M193.177 159.742L187.627 167.782L185.718 166.464L189.774 160.588L186.712 158.475L182.991 163.866L181.14 162.587L184.86 157.197L181.824 155.101L177.66 161.133L175.75 159.815L181.408 151.618L193.177 159.742Z" fill="#F5F5F5"/>
<path d="M169.103 186.61L167.565 184.873L171.046 181.79L163.101 172.822L165.07 171.078L173.014 180.046L176.495 176.962L178.033 178.699L169.103 186.61Z" fill="#F5F5F5"/>
<path d="M153.661 196.695C150.527 198.34 147.7 197.808 146.341 195.218L148.59 194.038C149.297 195.383 150.914 195.613 152.649 194.702C154.101 193.94 155.233 192.59 154.571 191.328C153.971 190.185 152.743 190.588 150.657 191.315L150.024 191.54C147.727 192.339 144.797 193.352 143.252 190.408C141.865 187.765 143.359 185.275 146.6 183.574C150.128 181.722 152.994 182.234 154.414 184.939L152.165 186.119C151.407 184.676 149.693 184.475 147.66 185.541C145.925 186.452 144.827 187.836 145.541 189.195C146.198 190.448 147.456 190.025 149.361 189.353L150.163 189.073C152.455 188.265 155.347 187.233 156.811 190.022C158.17 192.612 156.561 195.173 153.661 196.695Z" fill="#F5F5F5"/>
<path d="M126.595 199.648L125.634 195.75L129.736 194.739L130.697 198.637L126.595 199.648Z" fill="#F5F5F5"/>
</svg>
