<?xml version="1.0" standalone="no"?>
<!DOCTYPE svg PUBLIC "-//W3C//DTD SVG 20010904//EN"
 "http://www.w3.org/TR/2001/REC-SVG-20010904/DTD/svg10.dtd">
<svg version="1.0" xmlns="http://www.w3.org/2000/svg"
 width="2048.000000pt" height="2048.000000pt" viewBox="0 0 2048.000000 2048.000000"
 preserveAspectRatio="xMidYMid meet">

<g transform="translate(0.000000,2048.000000) scale(0.100000,-0.100000)"
fill="#000000" stroke="none">
<path d="M11477 12210 c-465 -49 -926 -290 -1234 -646 l-52 -60 49 -73 c107
-161 196 -365 259 -595 23 -82 43 -151 45 -153 2 -2 13 25 26 59 167 466 605
773 1100 772 154 -1 219 -11 360 -58 329 -111 589 -366 705 -690 87 -241 90
-504 10 -761 l-25 -80 252 -252 c138 -139 256 -249 261 -246 16 9 134 262 165
354 79 226 113 488 93 723 -72 861 -690 1546 -1526 1691 -110 19 -369 27 -488
15z"/>
<path d="M7399 11856 l346 -346 437 0 c461 0 534 -5 676 -46 177 -51 322 -136
461 -269 129 -123 212 -241 272 -387 40 -96 136 -420 200 -671 68 -267 98
-357 174 -512 210 -432 551 -753 994 -936 338 -139 737 -175 1083 -98 112 24
265 73 348 110 l64 30 -274 274 -275 275 -60 -12 c-89 -17 -305 -14 -406 5
-183 36 -357 115 -494 224 -131 105 -279 292 -340 428 -57 127 -154 433 -243
765 -97 360 -186 550 -377 805 -254 338 -635 576 -1080 676 -99 23 -111 23
-976 26 l-877 4 347 -345z"/>
<path d="M7040 10257 l0 -1707 821 0 c900 0 914 1 1149 61 214 55 420 152 609
287 98 69 327 282 349 324 12 21 9 30 -33 93 -120 182 -241 474 -290 700 -6
28 -7 28 -29 -27 -130 -320 -409 -584 -719 -683 -159 -51 -214 -55 -708 -55
l-459 0 0 1015 0 1015 -152 153 c-84 84 -240 238 -345 342 l-193 188 0 -1706z"/>
<path d="M11927 9982 l-238 -238 637 -638 637 -637 244 243 243 243 -632 632
c-348 348 -637 633 -643 633 -6 0 -117 -107 -248 -238z"/>
</g>
</svg>
