<svg width="39" height="46" viewBox="0 0 39 46" fill="none" xmlns="http://www.w3.org/2000/svg">
<path fill-rule="evenodd" clip-rule="evenodd" d="M23.9299 39.5488C26.3535 39.0115 28.635 38.1077 30.7102 36.9L33.5203 39.9932L27.3739 43.7826L23.9299 39.5488ZM28.0103 44.565L28.7519 45.4767H38.5019L34.2044 40.7462L28.0103 44.565Z" fill="#232323"/>
<path fill-rule="evenodd" clip-rule="evenodd" d="M15.645 0H0V10.7383H9.39V8.13H15.435C17.395 8.13 19.14 8.425 20.67 9.015C22.21 9.595 23.505 10.45 24.555 11.58C25.3888 12.4688 26.0648 13.5216 26.583 14.7383H36.4713C36.0116 13.0721 35.3844 11.5293 34.59 10.11C33.7 8.52 32.615 7.1 31.335 5.85C30.065 4.6 28.625 3.54 27.015 2.67C25.405 1.8 23.645 1.14 21.735 0.69C19.835 0.23 17.805 0 15.645 0ZM37.0977 17.7383H27.4845C27.7015 18.8806 27.81 20.1178 27.81 21.45C27.81 23.59 27.53 25.49 26.97 27.15C26.42 28.8 25.615 30.19 24.555 31.32C23.505 32.45 22.21 33.31 20.67 33.9C19.14 34.48 17.395 34.77 15.435 34.77H9.39V29.7383H0V42.9H15.645C17.795 42.9 19.825 42.675 21.735 42.225C23.645 41.765 25.405 41.1 27.015 40.23C28.625 39.36 30.065 38.3 31.335 37.05C32.615 35.8 33.7 34.38 34.59 32.79C35.48 31.2 36.16 29.455 36.63 27.555C37.11 25.655 37.35 23.62 37.35 21.45C37.35 20.1655 37.2659 18.9283 37.0977 17.7383ZM9.39 13.7383V26.7383H0V13.7383H9.39Z" fill="#232323"/>
</svg>
